<?xml version="1.0" encoding="UTF-8" standalone="no"?>
<!-- Created with Inkscape (http://www.inkscape.org/) -->

<svg
   width="210mm"
   height="297mm"
   viewBox="0 0 210 297"
   version="1.1"
   id="svg5"
   inkscape:version="1.1.1 (3bf5ae0d25, 2021-09-20)"
   sodipodi:docname="The Book Beta - Free Resources.svg"
   xmlns:inkscape="http://www.inkscape.org/namespaces/inkscape"
   xmlns:sodipodi="http://sodipodi.sourceforge.net/DTD/sodipodi-0.dtd"
   xmlns:xlink="http://www.w3.org/1999/xlink"
   xmlns="http://www.w3.org/2000/svg"
   xmlns:svg="http://www.w3.org/2000/svg">
  <sodipodi:namedview
     id="namedview7"
     pagecolor="#505050"
     bordercolor="#eeeeee"
     borderopacity="1"
     inkscape:pageshadow="0"
     inkscape:pageopacity="0"
     inkscape:pagecheckerboard="0"
     inkscape:document-units="px"
     showgrid="false"
     showborder="false"
     inkscape:object-paths="true"
     inkscape:snap-intersection-paths="true"
     inkscape:snap-smooth-nodes="true"
     showguides="true"
     inkscape:guide-bbox="true"
     inkscape:zoom="0.70710678"
     inkscape:cx="803.98041"
     inkscape:cy="409.41482"
     inkscape:window-width="1920"
     inkscape:window-height="1009"
     inkscape:window-x="-8"
     inkscape:window-y="-8"
     inkscape:window-maximized="1"
     inkscape:current-layer="layer1" />
  <defs
     id="defs2">
    <linearGradient
       inkscape:collect="always"
       id="linearGradient35796">
      <stop
         style="stop-color:#d35f5f;stop-opacity:1;"
         offset="0"
         id="stop35792" />
      <stop
         style="stop-color:#5fd3cc;stop-opacity:0"
         offset="1"
         id="stop35794" />
    </linearGradient>
    <linearGradient
       inkscape:collect="always"
       id="linearGradient35752">
      <stop
         style="stop-color:#d35f5f;stop-opacity:1;"
         offset="0"
         id="stop35748" />
      <stop
         style="stop-color:#6c236d;stop-opacity:0"
         offset="1"
         id="stop35750" />
    </linearGradient>
    <linearGradient
       inkscape:collect="always"
       id="linearGradient32053">
      <stop
         style="stop-color:#d35f5f;stop-opacity:1;"
         offset="0"
         id="stop32049" />
      <stop
         style="stop-color:#3a173a;stop-opacity:1"
         offset="1"
         id="stop32051" />
    </linearGradient>
    <linearGradient
       inkscape:collect="always"
       id="linearGradient17094">
      <stop
         style="stop-color:#d35f5f;stop-opacity:1;"
         offset="0"
         id="stop17090" />
      <stop
         style="stop-color:#6c236d;stop-opacity:1"
         offset="1"
         id="stop17092" />
    </linearGradient>
    <linearGradient
       inkscape:collect="always"
       id="linearGradient16669">
      <stop
         style="stop-color:#d35f5f;stop-opacity:1;"
         offset="0"
         id="stop16665" />
      <stop
         style="stop-color:#5fd3cc;stop-opacity:1"
         offset="1"
         id="stop16667" />
    </linearGradient>
    <linearGradient
       inkscape:collect="always"
       xlink:href="#linearGradient35752"
       id="linearGradient16443"
       x1="181.69949"
       y1="92.958145"
       x2="181.69949"
       y2="179.92442"
       gradientUnits="userSpaceOnUse"
       gradientTransform="translate(-0.26458112,-0.0144694)" />
    <linearGradient
       inkscape:collect="always"
       xlink:href="#linearGradient35796"
       id="linearGradient16671"
       x1="640.36377"
       y1="335.65225"
       x2="658.43805"
       y2="674.90955"
       gradientUnits="userSpaceOnUse" />
    <linearGradient
       inkscape:collect="always"
       xlink:href="#linearGradient16669"
       id="linearGradient16757"
       gradientUnits="userSpaceOnUse"
       x1="640.36377"
       y1="335.65225"
       x2="658.43805"
       y2="674.90955"
       gradientTransform="matrix(0,0.26458333,0.11492605,0,52.187464,-57.950196)" />
    <linearGradient
       inkscape:collect="always"
       xlink:href="#linearGradient32053"
       id="linearGradient16759"
       gradientUnits="userSpaceOnUse"
       gradientTransform="matrix(0,1,0.43436616,0,52.181184,-58.214776)"
       x1="181.69949"
       y1="92.958145"
       x2="181.69949"
       y2="179.92442" />
    <linearGradient
       inkscape:collect="always"
       xlink:href="#linearGradient16669"
       id="linearGradient17180"
       gradientUnits="userSpaceOnUse"
       gradientTransform="matrix(0,0.26458333,-0.26458333,0,216.07913,-5.5653737)"
       x1="640.36377"
       y1="335.65225"
       x2="658.43805"
       y2="674.90955" />
    <linearGradient
       inkscape:collect="always"
       xlink:href="#linearGradient17094"
       id="linearGradient17182"
       gradientUnits="userSpaceOnUse"
       gradientTransform="rotate(90,110.96178,105.13182)"
       x1="181.69949"
       y1="92.958145"
       x2="181.69949"
       y2="179.92442" />
  </defs>
  <g
     inkscape:label="Layer 1"
     inkscape:groupmode="layer"
     id="layer1">
    <path
       id="path2769"
       style="opacity:1;fill:url(#linearGradient16443);fill-opacity:1;stroke:none;stroke-width:0.264583px;stroke-linecap:butt;stroke-linejoin:miter;stroke-opacity:1"
       d="m 183.48027,90.893159 c 1.11958,1.01e-4 2.02716,0.90768 2.02726,2.027267 v 85.565324 l -36.44325,-8.09149 V 98.112358 c -0.001,-1.129932 -0.91542,-2.046409 -2.04535,-2.050521 3.34657,-0.496636 26.94621,-3.994883 35.94767,-5.102532 0.0173,-0.0045 0.0347,-0.0088 0.0522,-0.01291 0.15127,-0.03536 0.30611,-0.05322 0.46147,-0.05323 z"
       sodipodi:nodetypes="cccccccccc"
       inkscape:export-filename="E:\InkScape\The Book Beta - Free Resource Transparent.png"
       inkscape:export-xdpi="96"
       inkscape:export-ydpi="96" />
    <path
       id="path1398"
       style="opacity:1;fill:url(#linearGradient16671);stroke:none;stroke-width:0.999999px;stroke-linecap:butt;stroke-linejoin:miter;stroke-opacity:1;fill-opacity:1"
       d="m 556.66211,324.05273 c -4.23151,3.8e-4 -7.66173,3.4306 -7.66211,7.66211 l 0,323.39649 137.73828,24.91797 V 351.33789 c 0.005,-4.27061 3.45988,-7.73446 7.73047,-7.75 -12.64846,-1.87705 -101.84396,-15.09877 -135.86523,-19.28516 -0.0655,-0.0171 -0.1313,-0.0334 -0.19727,-0.0488 -0.57175,-0.13366 -1.15697,-0.20116 -1.74414,-0.20118 z"
       transform="scale(0.26458333)"
       sodipodi:nodetypes="cccccccccc"
       inkscape:export-filename="E:\InkScape\The Book Beta - Free Resource Transparent.png"
       inkscape:export-xdpi="96"
       inkscape:export-ydpi="96" />
    <path
       id="path16753"
       style="opacity:1;fill:url(#linearGradient16759);fill-opacity:1;stroke:none;stroke-width:0.174377px;stroke-linecap:butt;stroke-linejoin:miter;stroke-opacity:1"
       d="m 91.668374,125.53006 c 5e-5,1.11958 0.39427,2.02716 0.88058,2.02726 H 129.71563 L 126.20097,91.114074 H 94.804154 c -0.49081,-0.001 -0.88889,-0.91542 -0.89068,-2.04535 -0.21572,3.34657 -1.73524,26.946206 -2.21637,35.947666 -0.002,0.0173 -0.004,0.0347 -0.006,0.0522 -0.0154,0.15127 -0.0231,0.30611 -0.0231,0.46148 z"
       sodipodi:nodetypes="cccccccccc"
       inkscape:export-filename="E:\InkScape\The Book Beta - Free Resource Book.png"
       inkscape:export-xdpi="96"
       inkscape:export-ydpi="96" />
    <path
       id="path16755"
       style="opacity:1;fill:url(#linearGradient16757);fill-opacity:1;stroke:none;stroke-width:0.174377px;stroke-linecap:butt;stroke-linejoin:miter;stroke-opacity:1"
       d="m 89.429564,89.333314 c 4e-5,-1.11959 0.39427,-2.02717 0.88057,-2.02727 h 37.166686 l 2.86373,36.443246 H 92.565334 c -0.4908,0.001 -0.88889,0.91543 -0.89067,2.04536 -0.21572,-3.34657 -1.73525,-26.946216 -2.21637,-35.947676 -0.002,-0.0173 -0.004,-0.0347 -0.006,-0.0522 -0.0154,-0.15128 -0.0231,-0.30612 -0.0231,-0.46147 z"
       sodipodi:nodetypes="cccccccccc"
       inkscape:export-filename="E:\InkScape\The Book Beta - Free Resource Book.png"
       inkscape:export-xdpi="96"
       inkscape:export-ydpi="96" />
    <path
       id="path17176"
       style="opacity:1;fill:url(#linearGradient17182);fill-opacity:1;stroke:none;stroke-width:0.264583px;stroke-linecap:butt;stroke-linejoin:miter;stroke-opacity:1"
       d="m 125.18598,177.91489 c -1.1e-4,1.11958 -0.90768,2.02716 -2.02727,2.02726 H 37.59339 l 8.09148,-36.44325 h 72.28191 c 1.12993,-0.001 2.04641,-0.91542 2.05052,-2.04535 0.49663,3.34657 3.99488,26.94621 5.10253,35.94767 0.005,0.0173 0.009,0.0347 0.0129,0.0522 0.0354,0.15127 0.0532,0.30611 0.0532,0.46148 z"
       sodipodi:nodetypes="cccccccccc"
       inkscape:export-filename="E:\InkScape\The Book Beta - Free Resource LOREM IPSUM.png"
       inkscape:export-xdpi="96"
       inkscape:export-ydpi="96" />
    <path
       id="path17178"
       style="opacity:1;fill:url(#linearGradient17180);fill-opacity:1;stroke:none;stroke-width:0.264583px;stroke-linecap:butt;stroke-linejoin:miter;stroke-opacity:1"
       d="m 130.34018,141.71814 c -1e-4,-1.11959 -0.90768,-2.02717 -2.02726,-2.02727 H 42.74759 l -6.59288,36.44325 h 86.96628 c 1.12993,0.001 2.0464,0.91543 2.05052,2.04536 0.49663,-3.34657 3.99488,-26.94622 5.10253,-35.94768 0.005,-0.0173 0.009,-0.0347 0.0129,-0.0522 0.0354,-0.15128 0.0532,-0.30612 0.0532,-0.46147 z"
       sodipodi:nodetypes="cccccccccc"
       inkscape:export-filename="E:\InkScape\The Book Beta - Free Resource LOREM IPSUM.png"
       inkscape:export-xdpi="96"
       inkscape:export-ydpi="96" />
    <text
       xml:space="preserve"
       style="font-size:10.5833px;line-height:1.25;font-family:Exo;-inkscape-font-specification:Exo;stroke-width:0.264583"
       x="79.615974"
       y="162.76715"
       id="text20046"
       transform="skewX(-10.706341)"
       inkscape:export-filename="E:\InkScape\The Book Beta - Free Resource LOREM IPSUM.png"
       inkscape:export-xdpi="96"
       inkscape:export-ydpi="96"><tspan
         sodipodi:role="line"
         id="tspan20044"
         style="stroke-width:0.264583"
         x="79.615974"
         y="162.76715">LOREM IPSUM</tspan></text>
    <text
       xml:space="preserve"
       style="font-size:10.5833px;line-height:1.25;font-family:Exo;-inkscape-font-specification:Exo;opacity:0.5;fill:#892ca0;stroke-width:0.264583"
       x="79.613533"
       y="162.56871"
       id="text20448"
       transform="skewX(-10.706341)"
       inkscape:export-filename="E:\InkScape\The Book Beta - Free Resource LOREM IPSUM.png"
       inkscape:export-xdpi="96"
       inkscape:export-ydpi="96"><tspan
         sodipodi:role="line"
         id="tspan20446"
         style="fill:#892ca0;stroke-width:0.264583"
         x="79.613533"
         y="162.56871">LOREM IPSUM</tspan></text>
    <path
       d="m 177.84266,116.34809 c -0.90274,-0.11783 -1.53495,-1.39545 -1.88751,-0.47964 -0.82593,0.0654 -0.37138,-0.86732 -0.48499,-1.35717 0,-2.27494 0,-4.54988 0,-6.82482 0.81489,-0.036 0.96033,0.44993 0.83608,1.14605 0,0.66015 0,1.32029 0,1.98044 1.3319,-0.94958 3.64218,0.43113 3.48965,2.31664 0.16035,1.43682 -0.0252,3.7302 -1.95323,3.21845 z m -0.26459,-0.75684 c 1.80237,0.16606 1.85731,-2.79885 0.70885,-4.08023 -0.93933,-0.65927 -2.35659,-0.40317 -1.98068,0.84573 0,0.83301 0,1.66601 0,2.49902 0.40469,0.28358 0.79039,0.68551 1.27183,0.73548 z"
       id="path27970"
       style="font-size:10.5833px;line-height:1.25;font-family:Exo;-inkscape-font-specification:Exo;stroke-width:0.264583"
       sodipodi:nodetypes="ccccccccccccccccccc"
       inkscape:export-filename="E:\InkScape\The Book Beta - Free Resource Transparent.png"
       inkscape:export-xdpi="96"
       inkscape:export-ydpi="96" />
    <path
       d="m 177.62915,129.53014 c -2.13567,-0.14072 -2.5972,-2.64964 -2.32883,-4.18468 -0.16483,-2.14902 2.52827,-2.07881 3.96924,-0.84321 1.19467,1.35574 0.30241,3.34507 -1.38918,2.5327 -0.59174,-0.13046 -1.18348,-0.26092 -1.77522,-0.39138 -0.31315,1.46914 1.1458,2.37249 2.39828,2.42316 0.52526,-0.0339 1.71461,0.47402 0.90503,0.73796 -0.59035,-0.0564 -1.18395,-0.13775 -1.77932,-0.27455 z m -1.53458,-3.43924 c 0.90069,0.13587 1.85494,0.56137 2.70933,0.42799 1.30501,-1.50887 -2.37717,-3.31196 -2.63194,-1.42494 -0.0627,0.32019 -0.0762,0.6582 -0.0774,0.99694 z"
       id="path27972"
       style="font-size:10.5833px;line-height:1.25;font-family:Exo;-inkscape-font-specification:Exo;stroke-width:0.264583"
       inkscape:export-filename="E:\InkScape\The Book Beta - Free Resource Transparent.png"
       inkscape:export-xdpi="96"
       inkscape:export-ydpi="96" />
    <path
       d="m 179.01559,143.00143 c -1.33386,-0.2947 -3.60008,-0.59746 -3.27027,-2.5519 0.0106,-1.04189 0.0211,-2.08379 0.0317,-3.12567 -0.58378,0.14069 -1.39279,-0.63367 -0.61481,-0.72166 0.84049,0.32379 0.64583,-0.54155 0.72571,-1.09151 -0.11988,-0.80737 1.07271,-0.23672 0.68285,0.39654 -0.16026,0.71468 0.0893,1.10989 0.86555,1.09453 0.81216,0.17906 1.62431,0.35811 2.43647,0.53717 0.27683,0.9198 -0.45665,0.60655 -1.05789,0.45469 -0.74805,-0.16492 -1.49609,-0.32985 -2.24413,-0.49477 0.0349,1.24849 -0.0784,2.47745 0.0741,3.74166 0.57462,1.07796 2.58317,0.64681 3.14327,1.50974 0.1656,0.71215 -0.34679,0.26912 -0.77255,0.25118 z"
       id="path27974"
       style="font-size:10.5833px;line-height:1.25;font-family:Exo;-inkscape-font-specification:Exo;stroke-width:0.264583"
       sodipodi:nodetypes="ssscccccccccccsccccccs"
       inkscape:export-filename="E:\InkScape\The Book Beta - Free Resource Transparent.png"
       inkscape:export-xdpi="96"
       inkscape:export-ydpi="96" />
    <path
       d="m 176.57082,155.75505 c -1.73974,-0.25001 -1.95937,-3.21634 -0.43921,-3.30621 0.88334,0.006 1.796,0.32637 2.69345,0.49064 0.23754,-1.05319 -0.54727,-2.23664 -1.74901,-2.20594 -0.43668,-0.2452 -1.49675,-0.004 -1.46831,-0.61224 0.78534,-0.39501 3.059,-0.0435 3.83115,1.20728 0.41405,1.33141 0.14504,2.62795 0.22225,3.93959 -0.0117,0.56916 0.21355,1.4275 -0.64558,0.9624 0.009,-1.4137 -1.57984,0.0671 -2.44474,-0.4755 z m 0.34925,-0.54741 c 1.00778,0.15609 2.29196,0.218 1.90499,-1.12467 0.26757,-0.81299 -0.42823,-0.83272 -1.05692,-0.90772 -1.12589,-0.48473 -2.2695,0.18042 -1.6524,1.47414 0.17793,0.30279 0.50268,0.47493 0.80433,0.55825 z"
       id="path27976"
       style="font-size:10.5833px;line-height:1.25;font-family:Exo;-inkscape-font-specification:Exo;stroke-width:0.264583"
       inkscape:export-filename="E:\InkScape\The Book Beta - Free Resource Transparent.png"
       inkscape:export-xdpi="96"
       inkscape:export-ydpi="96" />
    <text
       xml:space="preserve"
       style="font-size:10.5833px;line-height:1.25;font-family:Exo;-inkscape-font-specification:Exo;stroke-width:0.264583"
       x="89.845741"
       y="97.28611"
       id="text34685"
       transform="skewX(7.8531224)"
       inkscape:export-filename="E:\InkScape\The Book Beta - Free Resource Book.png"
       inkscape:export-xdpi="96"
       inkscape:export-ydpi="96"><tspan
         sodipodi:role="line"
         id="tspan34683"
         style="stroke-width:0.264583"
         x="89.845741"
         y="97.28611">book</tspan></text>
  </g>
</svg>
